<svg xmlns="http://www.w3.org/2000/svg" viewBox="0 0 512 512" width="512" height="512">
  <title>Remem</title>
  <rect width="512" height="512" rx="113" ry="113" fill="#4F46E5"/>
  <g transform="translate(97.3 97.3) scale(13.225)" fill="none" stroke="#FFFFFF" stroke-width="2.4" stroke-linecap="round" stroke-linejoin="round">
    <path d="M12 18V5"/>
    <path d="M15 13a4.17 4.17 0 0 1-3-4 4.17 4.17 0 0 1-3 4"/>
    <path d="M17.598 6.5A3 3 0 1 0 12 5a3 3 0 1 0-5.598 1.5"/>
    <path d="M17.997 5.125a4 4 0 0 1 2.526 5.77"/>
    <path d="M18 18a4 4 0 0 0 2-7.464"/>
    <path d="M19.967 17.483A4 4 0 1 1 12 18a4 4 0 1 1-7.967-.517"/>
    <path d="M6 18a4 4 0 0 1-2-7.464"/>
    <path d="M6.003 5.125a4 4 0 0 0-2.526 5.77"/>
  </g>
</svg>
